<svg xmlns="http://www.w3.org/2000/svg" width="468" height="314"><path d="m435 58 2.27 2.074C451.419 73.48 461.968 91.602 465 111v13H353l-2-18c-5.776-21.662-16.566-38.788-36.15-50.26-45.801-25.004-104.64-21.362-153.225-7.428C145.042 53.258 129.245 59.83 114 68l-1.818.968c-32.52 17.465-61.575 44.185-73.03 80.071-5.331 17.788-4.89 37.611 3.473 54.41L44 206l1.375 2.582c11.385 20.14 32.768 32.79 54.645 38.892 3.626.963 7.261 1.87 10.918 2.714l2.019.47c14.101 3.05 28.11 3.717 42.48 3.655l2.651-.006c14.478-.05 28.626-.804 42.912-3.307l2.945-.504c42.904-7.57 99.456-27.087 127.465-63.32C333 186 333 186 335.62 186.248c3.843.855 7.394 2.153 11.036 3.611l2.29.9c2.52.992 5.037 1.992 7.554 2.991l5.332 2.1q4.312 1.694 8.622 3.395c11.794 4.649 23.612 9.236 35.428 13.825q7.225 2.807 14.448 5.616L434 224c-1.948 4.346-4.97 6.819-8.625 9.75l-2.102 1.693C407.973 247.508 391.364 258.16 374 267l-3.01 1.534C355.35 276.43 339.567 283.304 323 289l-2.988 1.042c-22.709 7.845-45.902 13.254-69.637 16.833l-2.082.314c-16.377 2.437-32.386 3.052-48.918 3.061l-3.322.002c-16.209-.016-32.058-.38-48.053-3.252l-3.05-.536C119.52 301.864 95.84 294.095 73 282l-3.113-1.645C40.84 264.201 15.459 238.2 5.719 205.902-2.76 175.935 3.293 145.98 18 119c11.984-20.428 28.502-38.349 47-53l2.855-2.336C90.867 45.267 117.512 32.2 145 22l2.67-1C228.797-8.955 343.25-8.79 435 58" fill="#ffffff"/><path d="M230 107c5.284 4.677 6.758 9.995 7.313 16.875-.35 10.09-5.38 17.32-12.43 24.188-16.52 14.24-38.255 20.06-59.742 19.116-7.745-.648-15.26-3.078-20.844-8.62-4.618-5.55-5.676-11.782-5.117-18.82 1.655-9.681 8.336-17.7 15.82-23.739 20.223-13.416 53.078-24.967 75-9" fill="#ffffff"/></svg>