<svg xmlns="http://www.w3.org/2000/svg" width="855" height="751"><path d="m254.688.688 2.492.003C270.644.728 283.734 1.573 297 4l2.153.372C323.102 8.537 346.18 16.38 368 27l2.233 1.085c19.088 9.407 37.697 21.621 52.865 36.614 1.778 1.477 1.778 1.477 3.793 1.309 3.027-1.447 5.327-3.595 7.796-5.82C459.58 38.536 489.712 22.236 521 12l2.082-.693C537.974 6.452 553.556 4.334 569 2l3.298-.546c4.527-.555 8.985-.672 13.542-.727l2.87-.038C649.25.049 706.67 15.242 755 53l2.945 2.3C772.99 67.368 787.117 80.798 799 96l2.32 2.84c16.762 20.938 29.412 45.076 38.68 70.16l.745 1.981c5.346 14.36 8.419 29.51 11.005 44.582l.35 2.012c2.383 14.741 2.037 29.611 2.014 44.493v7.601q0 8.15-.008 16.3-.011 11.785-.012 23.568-.004 19.123-.019 38.246-.014 18.564-.02 37.129v2.34l-.007 18.115c-.01 29.544-.03 59.089-.048 88.633H693l-.148-53.793a138886 138886 0 0 0-.177-53.693q-.058-17.9-.102-35.799-.048-18.385-.116-36.772-.043-11.334-.064-22.668-.02-8.709-.06-17.417-.014-3.56-.017-7.12c-.03-28.09-4.611-52.411-24.316-73.738l-2.074-2.352c-14.629-15.737-37.79-25.997-59.117-27.027-18.263-.5-33.525 1.736-49.809 10.379l-3.047 1.555c-8.125 4.4-14.465 9.966-20.953 16.445-.743.73-1.485 1.462-2.25 2.215-16.195 16.986-22.884 40.158-22.908 63.124l-.015 3.077q-.021 5.083-.032 10.166l-.03 7.304q-.033 7.851-.056 15.703-.035 11.352-.08 22.704-.071 18.42-.132 36.84-.059 17.889-.125 35.777l-.008 2.252-.072 19.395c-.104 27.814-.197 55.629-.292 83.443H347l-.148-54.012a140001 140001 0 0 0-.177-53.91q-.059-17.973-.102-35.945-.047-18.46-.116-36.92-.043-11.38-.064-22.76-.02-8.745-.06-17.489-.014-3.573-.017-7.148c-.03-28.152-4.847-52.386-24.316-73.816l-1.633-1.879c-14.372-15.563-37.975-26.501-59.097-27.36-28.793-.59-52.474 7.49-73.645 27.462C174.602 204 166.725 220.545 163 239l-.533 2.083c-.694 4.334-.62 8.628-.625 13.01l-.015 3.106q-.022 5.159-.032 10.318l-.03 7.391q-.032 7.96-.056 15.92-.035 11.508-.08 23.017-.071 18.672-.132 37.344-.059 18.137-.125 36.274l-.008 2.282-.065 17.668c-.106 28.862-.202 57.725-.299 86.587H0c-.121-64.32-.121-64.32-.146-91.299l-.019-18.522-.002-2.344q-.022-18.665-.064-37.33-.043-19.196-.051-38.392-.005-11.818-.042-23.636c-.018-6.07-.02-12.14-.015-18.211q-.001-3.704-.019-7.407C-.618 198.563 18.182 142.464 55 97l2.535-3.21C62.035 88.154 66.811 83 72 78a371 371 0 0 0 7.184-7.29C85.926 63.724 93.234 57.805 101 52l1.751-1.313C111.485 44.18 120.536 38.383 130 33l1.915-1.104C169.095 10.615 212.025.499 254.688.688" fill="#ffffff"/><path d="M825 610c16.71 14.19 26.148 34.423 28.196 56.075 1.468 19.706-5.52 40.703-18.301 55.85L833 724l-2.238 2.48c-14.077 14.84-33.469 23.841-54.028 24.766-22.233.549-42.102-6.46-58.394-21.906-15.603-15.603-25.519-34.408-25.59-56.778.029-22.681 7.872-41.831 23.438-58.312C746.342 585.318 792.512 584.253 825 610" fill="#ffffff"/><path d="M476.5 608a215 215 0 0 1 4.5 4c.682.59 1.364 1.18 2.066 1.79 13.985 12.862 23.247 33.138 24.32 52.026.551 21.715-6.005 42.944-21.155 58.906A508 508 0 0 1 482 729l-2.184 2.254c-14.773 14.27-35.741 20.188-55.826 20.112-18.724-.492-36.213-7.665-49.99-20.366l-2.582-2.34c-5.936-5.633-10.406-11.54-14.418-18.66l-1.176-2.086C346.821 690.881 343.642 669.738 349 651c4.194-12.835 10.1-23.842 19-34l1.797-2.086c27.137-29.34 75.798-30.92 106.703-6.914" fill="#ffffff"/><path d="m80.813 591.688 3.658-.05c20.654-.01 38.968 9.034 53.529 23.362l2.348 2.309c15.27 15.95 21.096 35.708 21.018 57.464-.502 20.034-9.595 39.535-23.789 53.641-16.774 15.708-37.403 23.382-60.23 22.836-23.02-1.022-42.18-12.191-57.597-28.652C3.88 703.97.581 682.85 2 659c2.249-19.392 13.387-36.979 27.914-49.613C38.7 602.59 48.266 597.042 59 594l3.453-1.078c6.032-1.476 12.187-1.25 18.36-1.235" fill="#ffffff"/></svg>