<svg xmlns="http://www.w3.org/2000/svg" width="622" height="300"><path d="M596 79c12.579 10.595 20.243 23.34 25 39l.54 1.704c1.116 5.568.768 11.489.81 17.155q.025 2.424.082 4.848c.492 20.787-6.057 37.91-20.432 53.293-14.453 14.125-33.98 20.264-53.8 20.32-15.546-.245-28.413-5.217-40.2-15.32l-1 65h-43V66h41l1 14 4.313-3.687C534.719 56.938 572.068 60.758 596 79m-82 34c-7.656 11.791-9.236 24.261-7 38 2.857 10.048 8.427 17.981 17 24 5.884 3.031 11.405 3.465 17.938 3.375l2.552.035c10.012-.046 16.988-2.8 24.21-9.773 8.285-9.496 10.674-20.973 10.14-33.352-1.156-10.332-4.73-20.358-12.84-27.285-16.165-10.385-38.831-11.05-52 5M308.86 74.25c3.795 3.335 7.213 6.617 10.14 10.75 3.493-1.494 5.69-3.526 8.375-6.187 13.232-12.102 30.527-16.243 48.07-16.02C391.901 63.751 406.872 69.556 418 82c13.484 17.344 14.307 36.526 14.195 57.516l-.008 6.203q-.014 8.109-.05 16.216c-.024 6.506-.033 13.011-.045 19.517-.019 9.85-.057 19.699-.092 29.548h-44l-.113-17.953q-.045-5.66-.096-11.32c-.054-5.978-.105-11.955-.137-17.933q-.041-7.236-.117-14.472a979 979 0 0 1-.035-5.497c.27-18.77.27-18.77-7.732-35.2-6.437-5.911-13.634-6.258-22.106-6.012-7.697.813-14.384 3.616-19.664 9.387-4.287 7.829-6.14 14.289-6.205 23.165l-.03 2.485q-.046 4.057-.081 8.116l-.063 5.632q-.082 7.408-.153 14.816-.092 8.89-.19 17.781c-.098 9.002-.187 18.003-.278 27.005h-44l-.113-18.68q-.045-5.879-.096-11.757c-.054-6.213-.105-12.425-.137-18.638q-.041-7.518-.117-15.036-.025-2.86-.035-5.72c.271-17.326.271-17.326-6.889-32.696-6.424-5.865-14.756-6.102-23.05-5.86-7.659.832-13.066 4.158-18.563 9.387l-2 3h-2q-.118-8.38-.067-16.76.005-2.85-.04-5.698c-.226-15.771-.226-15.771 3.015-20.075 2.348-1.59 4.415-2.555 7.092-3.467q2.378-1.119 4.75-2.25c19.31-7.174 43.685-5.424 60.11 7.5m-182.261 5.075c17.301 15.185 24.841 35.015 26.35 57.515.058 4.73-.478 9.453-.949 14.16l-108 1c5.173 11.64 9.186 17.493 20.625 22.813 12.881 4.532 30.34 3.662 42.625-2.125 3.038-1.596 5.58-3.267 8.125-5.563C118 165 118 165 119.863 165.051c3.092 1.373 4.732 3.473 6.95 6.012l1.32 1.496A685 685 0 0 1 132 177l3.938 4.5 1.59 1.844A93 93 0 0 0 142 188c-2.707 8.489-11.965 13.418-19.367 17.688-21.436 10.686-49.405 10.921-71.915 3.473C39.118 205.039 29.038 199.45 20 191l-2.398-2.234C10.888 181.937 6.57 173.816 3 165l-.874-2.157c-2.53-7.18-2.65-14.352-2.627-21.873.001-2.138-.04-4.272-.085-6.41-.16-18.59 6.953-34.55 19.863-47.837 27.768-27.768 76-33.362 107.322-7.398M51 107c-4.34 5.472-8 10.858-8 18h69c-3.348-11.16-7.049-18.15-17-24-14.47-7.384-32.271-5.652-44 6" fill="#ffffff"/><path d="M179 65h43v146h-43zM200.313-.375l2.802-.074C210.453-.481 214.678.9 220.145 6l1.667 2 1.708 2c4.41 5.958 4.271 11.763 3.48 19-2.175 7.414-6.3 12.244-13 16-8.305 3.772-16.597 3.556-25.266 1.074C181.806 43.352 178.153 38.55 175 32c-1.992-6.623-1.842-12.945 1.063-19.25 5.685-10.273 13.053-13.11 24.25-13.125" fill="#ffffff"/></svg>